<?xml version="1.0" standalone="no"?>
<!DOCTYPE svg PUBLIC "-//W3C//DTD SVG 20010904//EN"
 "http://www.w3.org/TR/2001/REC-SVG-20010904/DTD/svg10.dtd">
<svg version="1.0" xmlns="http://www.w3.org/2000/svg"
 width="1024.000000pt" height="1024.000000pt" viewBox="0 0 1024.000000 1024.000000"
 preserveAspectRatio="xMidYMid meet">

<g transform="translate(0.000000,1024.000000) scale(0.100000,-0.100000)"
fill="#000000" stroke="none">
<path d="M3645 8241 c-24 -11 -55 -39 -76 -67 -77 -104 -130 -192 -135 -226
-9 -50 13 -170 46 -254 33 -88 216 -423 538 -989 366 -643 425 -745 435 -745
10 0 9 1 -158 290 -65 113 -129 225 -143 250 -14 25 -86 151 -160 280 -74 129
-149 260 -165 290 -17 30 -59 107 -95 170 -127 224 -258 493 -270 556 -25 127
-16 175 52 274 128 187 127 187 339 150 136 -24 157 -31 187 -62 20 -21 95
-164 129 -249 113 -275 517 -1101 795 -1624 55 -103 156 -333 156 -357 1 -16
28 -53 35 -47 10 11 -87 229 -207 464 -311 607 -592 1178 -687 1395 -184 419
-201 448 -279 470 -30 9 -274 50 -292 50 -3 0 -23 -9 -45 -19z"/>
<path d="M5608 8146 c-36 -19 -136 -97 -166 -128 -47 -51 -45 -35 -223 -1793
-23 -231 -35 -320 -44 -335 -3 -5 -2 -10 4 -10 14 0 18 20 35 160 15 123 20
177 51 475 153 1506 145 1448 193 1498 49 52 160 128 195 134 63 10 153 -55
231 -167 41 -59 40 -77 -18 -385 -47 -250 -128 -698 -205 -1130 -81 -458 -83
-475 -42 -475 15 0 52 42 128 143 326 435 953 1183 1121 1339 72 66 122 82
235 72 87 -8 117 -22 154 -71 15 -21 45 -58 66 -83 45 -52 77 -110 77 -139 0
-33 -46 -203 -67 -252 -16 -36 -143 -206 -291 -389 -75 -92 -407 -538 -474
-635 -128 -186 -298 -468 -298 -495 0 -23 20 -38 45 -34 11 2 301 59 645 128
344 68 697 138 785 156 192 38 245 42 312 25 115 -30 153 -69 153 -154 0 -60
-32 -143 -66 -172 -44 -37 -148 -64 -884 -229 -69 -16 -172 -40 -230 -54 -58
-13 -185 -43 -282 -65 l-177 -41 -626 0 -626 0 -24 -26 -25 -27 0 -264 0 -264
25 -24 c20 -21 34 -25 83 -25 32 0 64 -5 71 -12 11 -10 13 -10 7 0 -4 6 -2 12
3 12 7 0 11 -26 11 -65 l0 -65 -74 0 c-59 0 -78 -4 -100 -21 l-26 -20 0 -273
c0 -308 -1 -302 78 -313 l39 -5 -15 -59 c-14 -52 -19 -59 -42 -59 -52 0 -55
-15 -61 -395 -9 -552 -34 -872 -77 -968 -29 -68 -104 -141 -161 -158 -86 -26
-175 36 -240 167 -25 49 -35 83 -35 119 -1 28 27 185 61 350 34 165 73 365 88
445 15 80 35 190 46 245 28 148 68 361 95 520 14 77 34 192 45 255 27 151 27
160 7 173 -38 25 -63 -4 -255 -283 -229 -335 -259 -378 -321 -465 -134 -187
-355 -462 -605 -754 -188 -220 -274 -305 -321 -321 -35 -11 -42 -10 -93 16
-67 34 -93 66 -100 122 -6 42 19 132 36 132 4 0 12 10 18 22 6 13 32 52 58 88
27 36 67 90 89 120 72 99 119 161 367 479 134 173 278 358 319 411 264 341
321 414 387 496 86 109 101 139 73 154 -10 5 -23 10 -29 10 -5 0 -144 -89
-308 -197 -250 -166 -477 -315 -688 -452 -22 -14 -48 -34 -59 -43 -28 -25
-473 -321 -538 -357 -82 -46 -228 -84 -304 -79 -137 9 -202 110 -163 253 19
71 12 66 469 347 157 96 377 232 490 300 113 69 288 176 390 238 102 62 237
144 300 182 140 85 171 112 168 149 -1 16 -4 26 -6 24 -2 -2 -14 0 -26 5 -12
4 -64 11 -116 14 -52 4 -120 8 -150 11 -30 2 -104 7 -165 10 -60 3 -164 10
-230 15 -66 5 -181 12 -255 15 -425 19 -1350 81 -1396 94 -35 9 -109 97 -123
145 -11 40 0 102 23 124 13 13 43 13 248 3 128 -7 260 -14 293 -16 33 -3 143
-9 245 -15 102 -6 289 -17 415 -25 546 -36 722 -47 915 -60 274 -19 326 -19
334 1 9 24 8 25 -16 10 -19 -12 -47 -13 -158 -6 -134 9 -761 50 -1060 70 -85
5 -272 17 -415 25 -143 8 -298 17 -345 20 -47 3 -162 10 -257 16 -125 7 -177
7 -192 -1 -48 -25 -65 -112 -35 -176 25 -52 91 -122 127 -133 17 -5 187 -19
377 -31 190 -11 404 -25 475 -30 72 -6 256 -17 410 -25 357 -19 742 -42 915
-55 166 -12 185 -24 128 -74 -21 -18 -100 -70 -175 -116 -317 -192 -795 -482
-888 -540 -33 -21 -139 -86 -235 -145 -450 -277 -471 -292 -490 -350 -15 -46
-15 -157 0 -185 21 -41 80 -89 123 -101 45 -12 78 -9 215 23 83 18 109 30 219
99 68 44 204 134 301 201 246 169 287 197 542 364 124 81 323 212 442 291 204
135 236 152 251 137 13 -13 26 4 -523 -699 -212 -271 -496 -638 -546 -705
-241 -322 -294 -405 -294 -460 0 -42 42 -111 86 -142 51 -36 110 -46 150 -25
72 38 204 183 604 667 155 188 334 431 570 775 238 346 243 353 271 373 43 30
43 3 5 -215 -111 -628 -270 -1463 -307 -1618 -10 -44 -19 -101 -19 -127 0
-110 89 -256 184 -303 62 -30 85 -29 152 10 78 46 129 113 153 201 6 23 21
167 33 320 17 222 21 346 18 605 -1 231 1 332 9 348 9 15 21 21 46 21 37 0 38
2 63 118 l10 42 -48 0 c-80 0 -80 -2 -80 286 0 137 3 259 6 271 3 12 15 25 26
29 11 3 655 7 1431 7 l1411 2 20 35 c10 19 13 30 6 23 -7 -6 -19 -9 -28 -6 -9
4 -13 2 -9 -4 4 -6 0 -16 -9 -24 -13 -10 -16 -9 -21 12 l-7 24 -7 -25 c-5 -16
-7 0 -8 46 l-1 71 46 -2 c25 0 48 3 51 8 3 5 -590 7 -1432 5 l-1437 -3 -19 23
c-17 22 -18 41 -16 284 2 259 2 260 25 279 23 18 51 18 655 17 l632 -1 195 46
c107 25 263 61 345 81 83 19 290 67 460 105 532 121 560 131 600 218 48 100
43 182 -13 236 -58 56 -206 83 -315 57 -23 -5 -386 -77 -806 -161 -497 -98
-767 -147 -773 -141 -11 11 39 104 170 312 128 205 308 452 642 880 271 347
254 319 289 463 25 104 27 164 4 197 -45 67 -157 200 -181 216 -34 22 -189 31
-252 14 -37 -10 -64 -31 -151 -119 -58 -58 -186 -200 -284 -316 -98 -115 -202
-237 -230 -270 -164 -193 -574 -714 -628 -798 -20 -31 -44 -44 -57 -31 -10 10
69 479 195 1162 19 105 51 279 70 385 20 105 43 226 51 269 18 90 14 103 -69
206 -89 110 -174 147 -249 108z"/>
<path d="M2668 7080 c-25 -5 -61 -19 -78 -32 -59 -43 -140 -174 -140 -225 0
-44 39 -173 68 -227 29 -54 76 -91 310 -251 73 -49 168 -115 212 -145 43 -30
163 -112 267 -182 103 -69 294 -198 423 -285 129 -88 341 -230 470 -318 129
-87 243 -165 253 -173 9 -8 20 -12 24 -8 4 4 3 10 -3 14 -18 11 -581 391 -794
536 -107 72 -280 190 -385 261 -640 433 -717 488 -747 531 -49 71 -86 211 -74
277 9 48 80 150 126 182 47 32 128 42 215 26 64 -12 97 -31 255 -154 431 -332
880 -670 1052 -792 303 -215 310 -219 328 -185 10 19 10 20 -8 9 -11 -7 -26
-10 -33 -7 -40 16 -834 603 -1274 943 -243 188 -254 194 -337 205 -40 5 -75 9
-78 9 -3 -1 -26 -5 -52 -9z"/>
<path d="M6818 5012 l-28 -3 2 -287 3 -287 2 283 3 282 713 -2 712 -3 0 -279
c0 -215 -3 -280 -12 -284 -7 -2 -13 -8 -13 -13 0 -11 32 1 42 15 4 6 8 131 8
277 0 197 -3 269 -12 282 -12 15 -73 17 -703 19 -379 2 -702 2 -717 0z"/>
<path d="M5482 4729 l3 -162 555 -1 555 -1 3 163 2 162 -560 0 -560 0 2 -161z"/>
<path d="M7950 4673 l0 -113 51 0 51 0 -4 111 -4 112 -47 1 -47 1 0 -112z"/>
<path d="M7510 4615 l0 -55 50 0 50 0 0 55 0 55 -50 0 -50 0 0 -55z"/>
<path d="M7730 4615 l0 -55 50 0 50 0 0 55 0 55 -50 0 -50 0 0 -55z"/>
<path d="M8201 4369 c-7 -12 -10 -23 -8 -26 3 -3 11 5 17 17 15 28 8 35 -9 9z"/>
<path d="M8200 4251 c0 -5 7 -11 15 -15 22 -8 17 -532 -5 -546 -13 -9 -13 -10
1 -10 37 0 39 17 39 292 0 254 -1 268 -19 278 -24 12 -31 13 -31 1z"/>
<path d="M6794 3965 c0 -159 2 -223 3 -142 2 82 2 212 0 290 -1 78 -3 12 -3
-148z"/>
<path d="M5480 3963 l0 -163 558 2 557 3 0 159 0 160 -557 1 -558 2 0 -164z"/>
<path d="M7950 3914 l0 -115 48 3 47 3 2 113 1 112 -49 0 -49 0 0 -116z"/>
<path d="M7510 3860 l0 -50 50 0 50 0 0 50 0 50 -50 0 -50 0 0 -50z"/>
<path d="M7730 3860 l0 -50 50 0 50 0 0 50 0 50 -50 0 -50 0 0 -50z"/>
<path d="M5470 3590 l0 -80 1303 0 1302 0 -3 80 -4 80 -1299 0 -1299 0 0 -80z"/>
<path d="M8216 3493 c5 -10 9 -137 9 -283 l0 -264 -25 -7 -25 -7 27 -1 c17 -1
31 6 38 18 6 12 10 118 10 275 0 218 -2 257 -16 270 -20 21 -28 20 -18 -1z"/>
<path d="M6794 3215 c0 -159 2 -223 3 -142 2 82 2 212 0 290 -1 78 -3 12 -3
-148z"/>
<path d="M8138 3493 c12 -2 32 -2 45 0 12 2 2 4 -23 4 -25 0 -35 -2 -22 -4z"/>
<path d="M5482 3215 l3 -155 555 -1 555 0 3 155 3 156 -561 0 -561 0 3 -155z"/>
<path d="M7950 3162 l0 -113 48 3 47 3 0 109 0 108 -47 2 -48 2 0 -114z"/>
<path d="M7510 3105 l0 -55 50 0 50 0 0 55 0 55 -50 0 -50 0 0 -55z"/>
<path d="M7730 3105 l0 -55 50 0 50 0 0 55 0 55 -50 0 -50 0 0 -55z"/>
<path d="M5470 2840 l0 -80 658 0 c361 0 946 -2 1300 -3 l642 -3 0 83 0 83
-1300 0 -1300 0 0 -80z"/>
<path d="M8216 2733 c5 -10 9 -138 9 -285 0 -148 3 -268 6 -268 16 0 19 47 19
285 0 217 -2 256 -16 269 -20 21 -28 20 -18 -1z"/>
<path d="M6794 2460 c0 -157 2 -221 3 -142 2 78 2 206 0 285 -1 78 -3 14 -3
-143z"/>
<path d="M5480 2460 l0 -160 560 0 560 0 0 160 0 160 -560 0 -560 0 0 -160z"/>
<path d="M7950 2404 l0 -115 48 3 47 3 3 113 3 112 -51 0 -50 0 0 -116z"/>
<path d="M7510 2345 l0 -55 50 0 50 0 0 55 0 55 -50 0 -50 0 0 -55z"/>
<path d="M7730 2345 l0 -55 50 0 50 0 0 55 0 55 -50 0 -50 0 0 -55z"/>
<path d="M5470 2082 c0 -47 5 -83 12 -90 9 -9 312 -12 1300 -12 l1288 0 0 90
0 90 -1300 0 -1300 0 0 -78z"/>
</g>
</svg>
